
<svg version="1.0" xmlns="http://www.w3.org/2000/svg"
 width="512.000000pt" height="512.000000pt" viewBox="0 0 512.000000 512.000000"
 preserveAspectRatio="xMidYMid meet">

<g transform="translate(0.000000,512.000000) scale(0.100000,-0.100000)"
fill="#000000" stroke="none">
<path d="M786 4744 c-21 -21 -20 -47 2 -67 16 -15 47 -17 226 -17 204 0 207 0
216 -22 10 -23 140 -631 140 -654 0 -10 -76 -14 -317 -16 -355 -4 -366 -6
-458 -76 -68 -52 -111 -111 -135 -188 -20 -65 -20 -89 -20 -1305 l0 -1239
-173 0 c-159 0 -175 -2 -191 -19 -16 -17 -17 -42 -14 -253 l3 -233 31 -66 c18
-37 48 -84 68 -106 43 -48 132 -97 204 -112 75 -16 4309 -16 4384 0 72 15 161
64 204 112 20 22 50 69 68 106 l31 66 3 236 4 237 -23 16 c-19 13 -53 16 -191
16 l-168 0 0 1238 c0 1364 3 1292 -62 1394 -54 86 -141 144 -246 167 -33 7
-173 11 -367 11 -195 0 -315 4 -315 10 0 5 18 94 40 197 43 202 47 237 28 250
-7 4 -546 10 -1198 13 l-1184 5 -23 110 c-43 202 -49 205 -340 205 -179 0
-214 -2 -227 -16z m2868 -431 c-2 -10 -37 -175 -78 -368 -41 -192 -84 -375
-95 -406 -69 -183 -236 -339 -436 -407 l-80 -27 -652 -3 c-359 -1 -653 1 -653
6 0 4 -56 275 -125 602 -69 327 -125 601 -125 608 0 9 231 12 1124 12 1065 0
1124 -1 1120 -17z m-2172 -850 l85 -408 -23 -46 c-51 -102 -49 -240 3 -349 36
-74 125 -161 197 -190 54 -23 56 -25 77 -87 l21 -64 -37 -41 c-21 -22 -49 -66
-64 -97 -23 -49 -26 -68 -26 -161 0 -92 3 -112 26 -160 95 -201 332 -289 531
-197 209 97 291 366 171 561 -14 22 -37 53 -50 67 l-25 27 18 56 18 56 237 0
238 0 17 -54 17 -53 -42 -56 c-79 -104 -104 -213 -76 -332 19 -82 48 -136 106
-194 151 -150 403 -152 553 -5 62 62 92 115 111 199 28 119 3 228 -76 332
l-42 56 17 53 17 54 64 0 c87 0 115 12 115 49 0 15 -6 33 -13 40 -10 7 -279
11 -913 13 l-899 3 -57 28 c-65 32 -121 90 -151 156 -28 62 -29 179 -1 236
l19 40 670 5 c729 6 704 4 842 65 179 80 340 246 416 430 11 27 37 122 56 210
l37 160 329 3 c367 3 399 -2 476 -61 23 -17 56 -57 73 -87 l31 -55 3 -1252 2
-1253 -2020 0 -2020 0 2 1253 3 1252 31 55 c38 66 86 107 156 131 47 16 89 18
359 19 l305 0 86 -407z m818 -1036 c0 -6 -78 -234 -100 -290 -31 -83 -83 -107
-146 -68 -28 17 -37 36 -84 178 -29 87 -55 164 -58 171 -3 9 39 12 192 12 108
0 196 -1 196 -3z m1070 -4 c0 -5 -23 -78 -51 -163 -56 -170 -82 -210 -139
-210 -57 0 -83 40 -139 210 -28 85 -51 158 -51 163 0 4 86 7 190 7 105 0 190
-3 190 -7z m-1428 -390 c31 -45 105 -83 159 -83 99 1 170 62 208 180 12 38 24
70 27 70 3 0 17 -26 32 -57 53 -118 26 -251 -69 -337 -133 -120 -333 -97 -434
49 -65 93 -70 220 -14 312 l23 36 23 -68 c13 -38 33 -83 45 -102z m1036 88
c27 -80 60 -123 115 -150 82 -40 189 -16 243 54 13 18 34 61 46 96 11 35 24
68 28 72 16 18 55 -87 58 -160 3 -60 0 -80 -20 -125 -33 -72 -66 -108 -130
-143 -47 -27 -63 -30 -138 -30 -75 0 -91 3 -138 30 -64 35 -97 71 -130 143
-20 45 -23 65 -20 125 3 73 42 178 58 160 4 -4 17 -37 28 -72z m662 -1133 c0
-85 -22 -133 -67 -145 -37 -10 -1989 -10 -2026 0 -45 12 -67 60 -67 145 l0 72
1080 0 1080 0 0 -72z m-2260 -15 c0 -93 20 -143 73 -190 20 -18 53 -37 74 -42
53 -15 2013 -15 2066 0 21 5 54 24 74 42 53 47 73 97 73 190 l0 77 606 0 605
0 -3 -197 c-3 -172 -6 -203 -22 -237 -27 -53 -80 -104 -135 -130 l-46 -21
-2185 0 -2185 0 -46 21 c-58 27 -110 79 -139 140 -22 43 -24 65 -28 236 l-5
188 612 0 611 0 0 -77z"/>
</g>
</svg>
