<svg width="70" height="79" viewBox="0 0 70 79" fill="none" xmlns="http://www.w3.org/2000/svg">
<path d="M56.0753 16.7087L52.3037 21.5527C57.6497 25.6965 61.334 31.6189 62.6883 38.246C64.0427 44.873 62.9775 51.766 59.6859 57.6751C56.3944 63.5842 51.0943 68.1183 44.7468 70.4551C38.3992 72.792 31.4244 72.7769 25.087 70.4127C18.7496 68.0485 13.4692 63.4916 10.2032 57.5683C6.93711 51.6451 5.9017 44.7475 7.28464 38.1264C8.66759 31.5052 12.3773 25.5988 17.7412 21.4781C23.1052 17.3573 29.7681 15.2951 36.522 15.6652L31.2154 21.2321L35.1517 24.9886L43.5284 16.1882L47.2811 12.2469L43.3511 8.50543L34.557 0.127441L30.8018 4.06877L36.5296 9.52502C27.7441 9.12496 19.1391 12.1051 12.4828 17.8531C5.82655 23.601 1.62469 31.6801 0.740705 40.4302C-0.143281 49.1802 2.35776 57.9365 7.72986 64.8996C13.102 71.8627 20.937 76.5038 29.625 77.869C31.4177 78.1523 33.2299 78.2948 35.0448 78.2952C42.2099 78.2773 49.1908 76.0234 55.0136 71.8479C60.8363 67.6724 65.2105 61.7835 67.526 55.0028C69.8415 48.2221 69.9827 40.8878 67.93 34.023C65.8773 27.1581 61.733 21.1052 56.0753 16.7087Z" fill="#FF6875"/>
<path d="M38.3416 61.4324V57.8997C42.5306 57.432 46.6052 54.7869 46.6052 49.7631C46.6052 42.9377 40.2588 42.1558 35.6235 41.585C32.6603 41.2305 30.391 40.8194 30.391 39.0241C30.391 36.5273 33.9112 36.2582 35.4198 36.2582C37.6652 36.2582 40.0614 37.3143 40.8761 38.6607L41.1124 39.053L45.7641 36.8981L45.534 36.4292C44.8436 35.0642 43.8234 33.8931 42.5659 33.0222C41.3084 32.1513 39.8534 31.6081 38.3328 31.4419V28.3303H32.8891V31.4268C27.8138 32.1811 24.799 34.9922 24.799 39.0228C24.799 45.5942 30.7657 46.2605 35.1194 46.7496C38.9991 47.2072 40.8044 48.1652 40.8044 49.7669C40.8044 52.8181 36.579 53.0557 35.284 53.0557C32.4013 53.0557 29.6266 51.6175 28.817 49.7065L28.6171 49.2351L23.5657 51.3761L23.7668 51.8475C25.2642 55.3539 28.4964 57.5502 32.8954 58.0694V61.4324H38.3416Z" fill="#FF6875"/>
</svg>
