<svg width="69" height="89" viewBox="0 0 69 89" fill="none" xmlns="http://www.w3.org/2000/svg">
<path d="M0.515381 70.4007V88.9658H68.183V70.4007C68.1803 68.3309 67.3569 66.3467 65.8934 64.8831C64.4298 63.4196 62.4456 62.5962 60.3758 62.5935H8.3226C6.25282 62.5962 4.26856 63.4196 2.805 64.8831C1.34144 66.3467 0.518042 68.3309 0.515381 70.4007H0.515381ZM5.72019 70.4007C5.72119 69.7108 5.99569 69.0495 6.48352 68.5616C6.97135 68.0738 7.63271 67.7993 8.3226 67.7983H10.925V83.7648H5.72019V70.4007ZM16.1311 67.7983H22.8609L34.3492 79.2866L45.8375 67.7983H52.5635V83.7648H16.1311V67.7983ZM62.9782 70.4007V83.761H57.7734V67.7945H60.3758C61.0663 67.7955 61.7282 68.0706 62.2162 68.5592C62.7041 69.0479 62.9782 69.7102 62.9782 70.4007ZM38.4766 67.7983L34.3492 71.9257L30.2218 67.7983H38.4766Z" fill="#FF6875"/>
<path d="M53.8207 52.1787H57.7771V46.9739H60.3795C62.4493 46.9712 64.4336 46.1478 65.8971 44.6843C67.3607 43.2207 68.1841 41.2365 68.1868 39.1667V33.9619C68.1864 24.9881 64.6213 16.382 58.2756 10.0368C51.93 3.69161 43.3236 0.127108 34.3498 0.127441C25.376 0.127775 16.7699 3.69292 10.4247 10.0386C4.07955 16.3842 0.515047 24.9906 0.515381 33.9644L0.515381 39.1692C0.518042 41.239 1.34144 43.2232 2.805 44.6868C4.26856 46.1504 6.25282 46.9738 8.3226 46.9764H12.2652C13.7126 51.0756 16.2726 54.6909 19.6585 57.4175C23.0443 60.1441 27.1224 61.8743 31.4359 62.4143C35.7495 62.9543 40.1282 62.2828 44.0817 60.475C48.0353 58.6673 51.4075 55.7946 53.8207 52.1787ZM60.3795 41.7678H57.6263C57.7232 40.9037 57.7719 40.0349 57.7721 39.1654V33.9606C57.7719 33.0911 57.7232 32.2223 57.6263 31.3582H60.3745C61.0644 31.3592 61.7258 31.6337 62.2136 32.1215C62.7014 32.6094 62.9759 33.2707 62.9769 33.9606V39.1654C62.9773 39.8562 62.7033 40.5188 62.2154 41.0078C61.7274 41.4967 61.0653 41.7719 60.3745 41.7729L60.3795 41.7678ZM34.3492 5.3354C40.6069 5.34345 46.6902 7.398 51.6714 11.1857C56.6526 14.9734 60.2583 20.2864 61.9385 26.3143C61.4242 26.2096 60.9006 26.1569 60.3758 26.1572H56.4319C54.8174 21.5904 51.8267 17.6366 47.8718 14.84C43.9169 12.0435 39.1923 10.5418 34.3486 10.5418C29.5048 10.5418 24.7802 12.0435 20.8253 14.84C16.8704 17.6366 13.8797 21.5904 12.2652 26.1572H8.3226C7.79774 26.1569 7.2742 26.2096 6.7599 26.3143C8.44009 20.2864 12.0457 14.9734 17.0269 11.1857C22.0081 7.398 28.0915 5.34345 34.3492 5.3354ZM49.2948 23.5598C47.612 25.9637 45.3757 27.9275 42.7745 29.2854C40.1732 30.6433 37.2835 31.3556 34.3492 31.362H16.3171C16.8382 27.7435 18.4362 24.3655 20.9033 21.6676C23.3705 18.9697 26.5924 17.0768 30.1501 16.2351C33.7077 15.3934 37.4363 15.6419 40.8508 16.9482C44.2653 18.2546 47.2075 20.5584 49.2948 23.5598ZM8.3226 41.7729C7.63271 41.7719 6.97135 41.4974 6.48352 41.0095C5.99569 40.5217 5.72119 39.8604 5.72019 39.1705V33.9656C5.72119 33.2757 5.99569 32.6144 6.48352 32.1266C6.97135 31.6387 7.63271 31.3642 8.3226 31.3632H11.0759C10.979 32.2273 10.9303 33.0961 10.93 33.9656V39.1705C10.9303 40.04 10.979 40.9088 11.0759 41.7729H8.3226ZM16.1298 39.1705V36.5681H34.3492C37.6447 36.5619 40.902 35.8631 43.91 34.5168C46.9179 33.1705 49.6092 31.2069 51.8092 28.7533C52.315 30.4441 52.5712 32.1996 52.5698 33.9644V39.1692C52.5726 41.8703 51.9713 44.5378 50.8097 46.9764H42.1564L39.8658 44.6908C38.4014 46.1549 36.4155 46.9775 34.3448 46.9775C32.2741 46.9775 30.2881 46.1549 28.8238 44.6908L25.144 48.3707C27.3588 50.5855 30.2982 51.9271 33.4226 52.1493C36.547 52.3714 39.6467 51.4592 42.1526 49.5801V52.1787H47.0809C44.5196 54.6878 41.2745 56.3848 37.7527 57.057C34.2308 57.7291 30.5888 57.3466 27.2835 55.9572C23.9782 54.5678 21.1566 52.2335 19.1726 49.247C17.1887 46.2605 16.1306 42.7547 16.1311 39.1692L16.1298 39.1705Z" fill="#FF6875"/>
</svg>
